<?xml version="1.0" encoding="utf-8"?><svg id="Untitled-1" image-rendering="auto" baseProfile="basic" version="1.1" x="0px" y="0px" width="210" height="210" xmlns="http://www.w3.org/2000/svg" xmlns:xlink="http://www.w3.org/1999/xlink"><g id="Scene-1" overflow="visible"><g id="Symbol-1" transform="translate(105 105)"><animateTransform attributeName="transform" additive="replace" type="translate" repeatCount="indefinite" dur="0.5s" keyTimes="0;1" values="105,105;105,105"/><animateTransform attributeName="transform" additive="sum" type="rotate" repeatCount="indefinite" dur="0.5s" keyTimes="0;.033;.067;.1;.133;.167;.2;.233;.267;.3;.333;.367;.4;.433;.467;.5;.533;.567;.6;.633;.667;.7;.733;.767;.8;.833;.867;.9;.933;.967;1" values="0,0,0;2,0,0;3.814,0,0;6.002,0,0;7.816,0,0;10.005,0,0;11.821,0,0;14.012,0,0;15.827,0,0;18.018,0,0;19.834,0,0;22.026,0,0;23.843,0,0;26.036,0,0;27.854,0,0;30.047,0,0;32.053,0,0;34.059,0,0;36.065,0,0;37.883,0,0;40.078,0,0;41.896,0,0;44.091,0,0;45.909,0,0;48.104,0,0;49.922,0,0;52.117,0,0;53.935,0,0;56.129,0,0;57.947,0,0;57.947,0,0"/><animateTransform attributeName="transform" additive="sum" type="scale" repeatCount="indefinite" dur="0.5s" keyTimes="0;.067;.1;.2;.233;.4;.433;1" values="1,1;1,1;1,.999;1,.999;.998,.998;.998,.998;.997,.997;.997,.997"/><path fill="#1E54A1" stroke="none" d="M70.65 -70.85Q70.25 -71.25 69.75 -71.7 64.4 -69.55 58.05 -69.55 45.15 -69.55 36.05 -78.65 28.5 -86.2 27.25 -96.5 14.35 -100 0 -100 -14.35 -100 -27.25 -96.5 -28.5 -86.25 -36.15 -78.65 -45.15 -69.55 -58.05 -69.55 -64.45 -69.55 -69.85 -71.75 -70.35 -71.3 -70.85 -70.85 -90.85 -50.75 -97.1 -24.85 -95.4 -23.55 -93.85 -22 -84.75 -12.9 -84.75 0 -84.75 12.9 -93.85 21.95 -95.45 23.55 -97.1 24.85 -90.85 50.65 -70.85 70.65 -70.35 71.15 -69.85 71.65 -64.4 69.45 -58.05 69.45 -45.15 69.45 -36.1 78.5 -28.45 86.15 -27.25 96.5 -14.35 100 0 100 14.35 100 27.25 96.5 28.45 86.15 36.05 78.45 45.15 69.45 58.05 69.45 64.35 69.45 69.75 71.6 70.2 71.15 70.65 70.65 90.75 50.65 97.1 24.9 95.35 23.55 93.75 21.95 84.7 12.9 84.7 0 84.7 -12.9 93.75 -22 95.35 -23.6 97.1 -24.95 90.75 -50.75 70.65 -70.85M11.05 -75.95Q18.95 -71.35 21.25 -62.6 23.65 -53.75 19.05 -45.85 14.45 -37.9 5.7 -35.65 -3.1 -33.2 -11.05 -37.8 -18.95 -42.35 -21.25 -51.2 -23.65 -59.95 -19.05 -67.9 -14.5 -75.8 -5.7 -78.15 3.15 -80.5 11.05 -75.95M0 -17.3Q7.2 -17.3 12.25 -12.25 17.3 -7.2 17.3 0 17.3 7.2 12.25 12.25 7.2 17.3 0 17.3 -7.2 17.3 -12.25 12.25 -17.3 7.2 -17.3 0 -17.3 -7.2 -12.25 -12.25 -7.2 -17.3 0 -17.3M38.25 -9.35Q30.35 -13.9 28 -22.75 25.6 -31.5 30.2 -39.45 34.75 -47.35 43.55 -49.7 52.4 -52.05 60.3 -47.45 68.25 -42.85 70.55 -34.15 72.9 -25.25 68.35 -17.35 63.75 -9.45 54.95 -7.15 46.15 -4.75 38.25 -9.35M70.35 22.65Q72.75 31.5 68.15 39.4 63.55 47.35 54.8 49.6 46 52.05 38.05 47.45 30.15 42.85 27.85 34.05 25.45 25.25 30.05 17.35 34.6 9.45 43.4 7.05 52.25 4.75 60.15 9.3 68.05 13.9 70.35 22.65M21.25 51.1Q23.65 59.95 19.05 67.85 14.45 75.8 5.7 78.05 -3.1 80.5 -11.05 75.9 -18.95 71.35 -21.25 62.5 -23.65 53.75 -19.05 45.8 -14.5 37.9 -5.7 35.55 3.15 33.2 11.05 37.75 18.95 42.35 21.25 51.1M-43.4 -7.05Q-52.2 -4.65 -60.15 -9.25 -68.05 -13.8 -70.35 -22.65 -72.75 -31.4 -68.15 -39.35 -63.6 -47.25 -54.8 -49.6 -45.95 -51.95 -38.05 -47.35 -30.15 -42.75 -27.85 -34.05 -25.45 -25.15 -30.05 -17.25 -34.65 -9.35 -43.4 -7.05M-27.95 22.75Q-25.6 31.6 -30.15 39.5 -34.75 47.45 -43.55 49.7 -52.35 52.15 -60.25 47.55 -68.15 42.95 -70.5 34.15 -72.9 25.35 -68.3 17.45 -63.75 9.55 -54.95 7.15 -46.1 4.85 -38.2 9.4 -30.25 14 -27.95 22.75Z"/></g></g></svg>